<?xml version="1.0" encoding="UTF-8" standalone="no"?>
<!DOCTYPE svg PUBLIC "-//W3C//DTD SVG 1.1//EN" "http://www.w3.org/Graphics/SVG/1.1/DTD/svg11.dtd">
<svg width="100%" height="100%" viewBox="0 0 1258 790" version="1.1" xmlns="http://www.w3.org/2000/svg" xmlns:xlink="http://www.w3.org/1999/xlink" xml:space="preserve" xmlns:serif="http://www.serif.com/" style="fill-rule:evenodd;clip-rule:evenodd;stroke-linecap:round;stroke-linejoin:round;stroke-miterlimit:1.5;">
    <g transform="matrix(1,0,0,1,-5299,-1103)">
        <g id="ctv-solo" serif:id="ctv solo" transform="matrix(1,0,0,1,5303.63,349.283)">
            <rect x="-4.063" y="754.303" width="1256.58" height="788.828" style="fill:none;"/>
            <g transform="matrix(1.18422,0,0,1.19158,2957.36,410.661)">
                <g transform="matrix(1.40047,0,0,0.910571,-2762.85,-183.397)">
                    <path d="M525.629,541.204C551.98,529.359 580.004,529.359 606.354,541.204C679.239,573.966 831.311,642.324 896.742,671.736C915.138,680.005 927.771,705.811 927.771,735.121C927.771,796.412 927.771,900.259 927.771,961.532C927.771,990.819 915.148,1016.61 896.766,1024.87C831.34,1054.28 679.205,1122.66 606.324,1155.42C579.993,1167.26 551.99,1167.26 525.66,1155.42C452.779,1122.66 300.649,1054.28 235.22,1024.87C216.837,1016.61 204.212,990.817 204.212,961.527C204.212,900.242 204.212,796.372 204.212,735.087C204.212,705.797 216.837,680.009 235.22,671.745C300.639,642.339 452.736,573.97 525.629,541.204Z" style="fill:white;"/>
                </g>
                <g transform="matrix(1.31367,0,0,0.812865,-2714.27,-101.325)">
                    <path d="M530.42,538.966C553.931,528.108 578.874,528.156 602.369,539.104C678.513,574.584 853.624,656.178 909.782,682.345C920.245,687.221 927.43,702.644 927.388,720.143C927.244,780.792 926.917,918.66 926.773,979.12C926.732,996.514 919.56,1011.78 909.157,1016.62C850.862,1043.75 663.378,1130.97 593.23,1163.61C575.708,1171.76 557.106,1171.76 539.586,1163.6C469.383,1130.89 281.63,1043.42 223.331,1016.26C212.944,1011.42 205.781,996.177 205.732,978.807C205.572,921.933 205.22,796.407 205.036,730.905C204.967,706.284 215.091,684.587 229.824,677.784C292.544,648.819 457.205,572.777 530.42,538.966Z" style="fill:none;stroke:black;stroke-width:6.64px;"/>
                </g>
            </g>
            <g transform="matrix(0.853004,0,0,0.853004,132.331,177.478)">
                <g transform="matrix(8.58815,0,0,11.0219,-3887.36,-11183.2)">
                    <g transform="matrix(24,0,0,24,468.184,1122.76)">
                        <path d="M0.305,0.012C0.446,0.012 0.523,-0.05 0.523,-0.243L0.374,-0.243C0.372,-0.186 0.375,-0.096 0.305,-0.096C0.22,-0.096 0.209,-0.176 0.209,-0.361C0.209,-0.546 0.22,-0.626 0.305,-0.626C0.35,-0.626 0.367,-0.59 0.367,-0.494L0.515,-0.494C0.521,-0.649 0.459,-0.734 0.305,-0.734C0.056,-0.734 0.056,-0.552 0.056,-0.361C0.056,-0.172 0.056,0.012 0.305,0.012Z" style="fill:rgb(200,16,46);fill-rule:nonzero;"/>
                    </g>
                    <g transform="matrix(24,0,0,24,481.528,1122.76)">
                        <path d="M0.211,-0.611L0.278,-0.611C0.326,-0.611 0.355,-0.585 0.355,-0.516C0.355,-0.47 0.338,-0.41 0.278,-0.41L0.211,-0.41L0.211,-0.611ZM0.211,-0.299L0.25,-0.299C0.366,-0.299 0.358,-0.226 0.358,-0.14C0.358,-0.093 0.354,-0.044 0.374,-0L0.522,-0C0.508,-0.03 0.505,-0.166 0.505,-0.212C0.505,-0.342 0.407,-0.35 0.374,-0.354L0.374,-0.356C0.472,-0.372 0.508,-0.441 0.508,-0.533C0.508,-0.656 0.442,-0.722 0.339,-0.722L0.06,-0.722L0.06,-0L0.211,-0L0.211,-0.299Z" style="fill:rgb(200,16,46);fill-rule:nonzero;"/>
                    </g>
                    <g transform="matrix(24,0,0,24,494.872,1122.76)">
                        <path d="M0.305,-0.096C0.22,-0.096 0.209,-0.176 0.209,-0.361C0.209,-0.546 0.22,-0.626 0.305,-0.626C0.39,-0.626 0.401,-0.546 0.401,-0.361C0.401,-0.176 0.39,-0.096 0.305,-0.096ZM0.305,0.012C0.554,0.012 0.554,-0.172 0.554,-0.361C0.554,-0.552 0.554,-0.734 0.305,-0.734C0.056,-0.734 0.056,-0.552 0.056,-0.361C0.056,-0.172 0.056,0.012 0.305,0.012Z" style="fill:rgb(200,16,46);fill-rule:nonzero;"/>
                    </g>
                    <g transform="matrix(24,0,0,24,509.536,1122.76)">
                        <path d="M0.215,-0.611L0.291,-0.611C0.359,-0.611 0.375,-0.561 0.375,-0.502C0.375,-0.454 0.344,-0.405 0.299,-0.405L0.215,-0.405L0.215,-0.611ZM0.064,-0L0.215,-0L0.215,-0.294L0.327,-0.294C0.504,-0.294 0.528,-0.424 0.528,-0.506C0.528,-0.638 0.474,-0.722 0.336,-0.722L0.064,-0.722L0.064,-0Z" style="fill:rgb(200,16,46);fill-rule:nonzero;"/>
                    </g>
                    <g transform="matrix(24,0,0,24,522.88,1122.76)">
                        <path d="M0.511,-0.197C0.511,-0.424 0.207,-0.412 0.207,-0.549C0.207,-0.599 0.236,-0.626 0.285,-0.626C0.346,-0.626 0.355,-0.571 0.355,-0.517L0.502,-0.517C0.512,-0.668 0.439,-0.734 0.292,-0.734C0.108,-0.734 0.054,-0.644 0.054,-0.531C0.054,-0.316 0.358,-0.308 0.358,-0.178C0.358,-0.129 0.333,-0.096 0.282,-0.096C0.199,-0.096 0.196,-0.154 0.196,-0.223L0.045,-0.223C0.037,-0.098 0.072,0.012 0.259,0.012C0.374,0.012 0.511,-0.01 0.511,-0.197Z" style="fill:rgb(200,16,46);fill-rule:nonzero;"/>
                    </g>
                </g>
                <g transform="matrix(0.612164,0,0,1.03324,-1210.9,-2784.62)">
                    <g transform="matrix(264.525,0,0,264.525,3141.9,3851.48)">
                        <path d="M0.256,-0L0.56,-0L0.56,-0.546L0.797,-0.546L0.797,-0.722L0.019,-0.722L0.019,-0.546L0.256,-0.546L0.256,-0Z" style="fill:rgb(241,190,72);fill-rule:nonzero;"/>
                    </g>
                    <g transform="matrix(264.525,0,0,264.525,3357.76,3851.48)">
                        <path d="M0.32,-0L0.692,-0L1.011,-0.722L0.701,-0.722L0.516,-0.266L0.336,-0.722L0.001,-0.722L0.32,-0Z" style="fill:rgb(241,190,72);fill-rule:nonzero;"/>
                    </g>
                </g>
            </g>
            <g transform="matrix(1.09151,0,0,1.09151,-60.7734,-110.556)">
                <g transform="matrix(0.132157,0,0,0.334697,360.271,804.246)">
                    <path d="M328.363,1339.14L1997.29,1339.14" style="fill:none;stroke:rgb(241,190,72);stroke-width:34.98px;stroke-miterlimit:1;"/>
                </g>
                <g transform="matrix(0.170065,0,0,0.334697,568.436,804.246)">
                    <path d="M328.363,1339.14L1997.29,1339.14" style="fill:none;stroke:rgb(200,16,46);stroke-width:31.18px;stroke-linejoin:miter;stroke-miterlimit:3;"/>
                </g>
                <g transform="matrix(-4.59828e-17,0.255921,-0.210952,-3.97804e-17,634.887,1408.69)">
                    <path d="M-612.968,1206.87L-534.14,1364.53L-691.796,1364.53L-612.968,1206.87Z" style="fill:rgb(200,16,46);stroke:rgb(200,16,46);stroke-width:37.11px;stroke-linecap:butt;stroke-miterlimit:1;"/>
                </g>
                <g transform="matrix(0.0414691,0,0,0.0414691,718.69,1214.09)">
                    <g transform="matrix(1.07611,0,0,1.15555,262.469,-52.0852)">
                        <path d="M-1777.66,359.477C-1778.3,222.197 -1886.59,105.969 -2032.44,86.023C-2099.63,76.834 -2153.83,69.422 -2153.83,69.422L-2363.9,65.341L-2556.56,69.707C-2556.56,69.707 -2593.84,75.526 -2644.56,83.445C-2807.24,108.844 -2930.56,233.977 -2943.81,387.096L-2943.82,387.126C-2943.24,476.253 -2931.42,565.008 -2908.61,651.568C-2872.21,789.722 -2819.9,988.218 -2819.9,988.218L-2757.88,1196.74L-2699.06,1331.08C-2699.06,1331.08 -2699.05,1331.08 -2699.05,1331.09C-2653.64,1377.2 -2591.92,1406.54 -2525.18,1413.74C-2489.7,1417.57 -2458.74,1420.91 -2458.74,1420.91L-2327.12,1574.59L-2205.1,1427.32C-2205.1,1427.32 -2167.56,1418.63 -2136.96,1411.55C-2100.6,1403.12 -2067.86,1384.58 -2043.1,1358.38C-2036.88,1349.47 -2029.96,1341.07 -2023.85,1331.08C-1998.05,1288.89 -1977.09,1238.96 -1965.51,1191.9C-1906.21,950.837 -1853.2,749.784 -1802.81,521.278C-1795.4,487.699 -1790.18,453.958 -1783.61,420.034C-1779.6,400.077 -1777.63,379.812 -1777.73,359.51C-1777.66,359.499 -1777.66,359.488 -1777.66,359.477Z" style="fill:rgb(241,190,72);stroke:white;stroke-width:58.51px;stroke-miterlimit:1;"/>
                    </g>
                    <g transform="matrix(1.3584,0,0,1.36722,-4084.68,-479.427)">
                        <path d="M1331.41,663.188C1391.57,663.188 1471.24,715.876 1507.24,819.913C1533.26,895.122 1529.9,1001.22 1524.93,1114.6C1521.83,1185.24 1515.92,1255.18 1508.13,1319.93C1500.15,1386.36 1486.24,1446.08 1471.56,1497.99C1457.96,1546.14 1433.83,1586.22 1413.81,1617.23C1396.76,1643.62 1385.48,1664.78 1356.19,1664.28C1335.8,1663.93 1322.35,1636.93 1304.5,1614C1287.39,1592.02 1252.15,1553 1237.6,1515.2C1198.56,1413.77 1157.95,1265.27 1140.27,1114.6C1125.72,990.64 1135.25,872.163 1165.5,794.467C1200.81,703.782 1275.59,663.188 1331.41,663.188Z" style="fill:rgb(241,190,72);stroke:white;stroke-width:47.7px;stroke-linecap:butt;stroke-miterlimit:1;"/>
                    </g>
                </g>
            </g>
        </g>
    </g>
</svg>
